<svg xmlns="http://www.w3.org/2000/svg" xmlns:xlink="http://www.w3.org/1999/xlink" width="189" height="142" viewBox="0 0 189 142">
  <defs>
    <filter id="Rectangle_53" x="0" y="46" width="189" height="96" filterUnits="userSpaceOnUse">
      <feOffset dy="3" input="SourceAlpha"/>
      <feGaussianBlur stdDeviation="3" result="blur"/>
      <feFlood flood-opacity="0.161"/>
      <feComposite operator="in" in2="blur"/>
      <feComposite in="SourceGraphic"/>
    </filter>
  </defs>
  <g id="Group_114" data-name="Group 114" transform="translate(-366 -57)">
    <g transform="matrix(1, 0, 0, 1, 366, 57)" filter="url(#Rectangle_53)">
      <path id="Rectangle_53-2" data-name="Rectangle 53" d="M0,0H171a0,0,0,0,1,0,0V66a12,12,0,0,1-12,12H12A12,12,0,0,1,0,66V0A0,0,0,0,1,0,0Z" transform="translate(9 52)" fill="#fff"/>
    </g>
    <rect id="Rectangle_79" data-name="Rectangle 79" width="171" height="78" transform="translate(375 57)" fill="#fff"/>
    <g id="logo" transform="translate(-1018.632 -1321.3)">
      <g id="Group_118" data-name="Group 118" transform="translate(1523.792 1459.905)">
        <path id="Path_19" data-name="Path 19" d="M2454.22,2221.435h-1.455l-4.416-10.306-4.494,10.306H2442.4l5.8-13.335h.295Z" transform="translate(-2442.4 -2208.1)"/>
      </g>
      <g id="Group_119" data-name="Group 119" transform="translate(1480.708 1459.905)">
        <path id="Path_20" data-name="Path 20" d="M2016.121,2221.435h-1.456l-4.415-10.306-4.494,10.306H2004.3l5.8-13.335h.3Z" transform="translate(-2004.3 -2208.1)"/>
      </g>
      <g id="Group_120" data-name="Group 120" transform="translate(1442.226 1459.905)">
        <path id="Path_21" data-name="Path 21" d="M1624.821,2221.435h-1.455l-4.416-10.306-4.494,10.306H1613l5.8-13.335h.295Z" transform="translate(-1613 -2208.1)"/>
      </g>
      <g id="Group_121" data-name="Group 121" transform="translate(1423.6 1459.119)">
        <path id="Path_22" data-name="Path 22" d="M1423.6,2200.1h1.357v5.005l5.33-5.005h1.79l-6.4,5.979,6.9,7.356h-1.78l-5.842-6.215v6.215H1423.6Z" transform="translate(-1423.6 -2200.1)"/>
      </g>
      <g id="Group_122" data-name="Group 122" transform="translate(1463.802 1459.119)">
        <path id="Path_23" data-name="Path 23" d="M1832.41,2200.1h2.655a16.4,16.4,0,0,1,3.009.177,3.348,3.348,0,0,1,2.675,3.373,3.538,3.538,0,0,1-.511,1.917,3.211,3.211,0,0,1-1.465,1.249,6.745,6.745,0,0,1-2.626.433l4.8,6.2h-1.652l-4.8-6.2h-.757v6.2H1832.4V2200.1Zm1.328,1.308v4.534l2.3.02a5.8,5.8,0,0,0,1.977-.256,2.1,2.1,0,0,0,1-.816,2.28,2.28,0,0,0,.354-1.249,2.14,2.14,0,0,0-.364-1.219,2.062,2.062,0,0,0-.954-.787,5.8,5.8,0,0,0-1.957-.236h-2.36Z" transform="translate(-1832.4 -2200.1)"/>
      </g>
      <g id="Group_123" data-name="Group 123" transform="translate(1500.74 1458.794)">
        <path id="Path_24" data-name="Path 24" d="M2221.021,2199.6l-1.052.806a5.815,5.815,0,0,0-2.085-1.721,6.055,6.055,0,0,0-2.675-.58,5.957,5.957,0,0,0-2.96.767,5.492,5.492,0,0,0-2.1,2.055,5.67,5.67,0,0,0-.747,2.9,5.481,5.481,0,0,0,1.672,4.072,5.769,5.769,0,0,0,4.219,1.633,5.935,5.935,0,0,0,4.691-2.193l1.052.8a6.77,6.77,0,0,1-2.488,1.967,7.812,7.812,0,0,1-3.334.7,6.923,6.923,0,0,1-5.517-2.331,7.012,7.012,0,0,1-1.691-4.75,6.6,6.6,0,0,1,2.055-4.927,7.059,7.059,0,0,1,5.143-2,7.548,7.548,0,0,1,3.373.738A6.459,6.459,0,0,1,2221.021,2199.6Z" transform="translate(-2208 -2196.8)"/>
      </g>
      <g id="Group_124" data-name="Group 124" transform="translate(1423.629 1481.403)">
        <path id="Path_25" data-name="Path 25" d="M1423.9,2426.7h2.626a6.339,6.339,0,0,1,2.439.374,3.038,3.038,0,0,1,1.347,1.161,3.221,3.221,0,0,1,.492,1.731,3.18,3.18,0,0,1-.433,1.623,3.146,3.146,0,0,1-1.269,1.18,5.052,5.052,0,0,1,1.6.826,3.258,3.258,0,0,1,.875,1.151,3.467,3.467,0,0,1,.315,1.465,3.6,3.6,0,0,1-1.17,2.714,4.407,4.407,0,0,1-3.147,1.111h-3.658V2426.7Zm1.308,1.3v4.268h.767a6.108,6.108,0,0,0,2.046-.256,2.236,2.236,0,0,0,1.033-.816,2.148,2.148,0,0,0,.384-1.239,1.757,1.757,0,0,0-.639-1.436,3.236,3.236,0,0,0-2.036-.521h-1.554Zm0,5.615v5.114h1.652a6,6,0,0,0,2.144-.285,2.424,2.424,0,0,0,1.092-.895,2.342,2.342,0,0,0-.167-2.871,2.945,2.945,0,0,0-1.593-.9,11.628,11.628,0,0,0-2.37-.167h-.757Z" transform="translate(-1423.9 -2426.7)"/>
      </g>
      <g id="Group_125" data-name="Group 125" transform="translate(1443.455 1481.393)">
        <path id="Path_26" data-name="Path 26" d="M1625.5,2426.61h1.338v8.054a15.443,15.443,0,0,0,.059,1.79,2.957,2.957,0,0,0,.462,1.318,2.707,2.707,0,0,0,1.111.885,3.521,3.521,0,0,0,1.515.354,2.985,2.985,0,0,0,1.269-.285,2.742,2.742,0,0,0,1.013-.777,3.177,3.177,0,0,0,.6-1.21,10.05,10.05,0,0,0,.138-2.085V2426.6h1.337v8.054a10.094,10.094,0,0,1-.344,2.891,3.918,3.918,0,0,1-1.4,1.918,4.022,4.022,0,0,1-2.537.816,4.871,4.871,0,0,1-2.764-.767,3.728,3.728,0,0,1-1.544-2.036,10.629,10.629,0,0,1-.246-2.812v-8.054Z" transform="translate(-1625.5 -2426.6)"/>
      </g>
      <g id="Group_126" data-name="Group 126" transform="translate(1462.416 1481.393)">
        <path id="Path_27" data-name="Path 27" d="M1818.3,2427.908V2426.6h7.307v1.308h-2.97v12.027h-1.357v-12.027Z" transform="translate(-1818.3 -2426.6)"/>
      </g>
      <g id="Group_127" data-name="Group 127" transform="translate(1482.055 1481.393)">
        <path id="Path_28" data-name="Path 28" d="M2018,2427.908V2426.6h7.307v1.308h-2.97v12.027h-1.357v-12.027Z" transform="translate(-2018 -2426.6)"/>
      </g>
      <g id="Group_128" data-name="Group 128" transform="translate(1500.76 1481.069)">
        <path id="Path_29" data-name="Path 29" d="M2215.134,2423.3a6.949,6.949,0,0,1,5.074,2.026,7.037,7.037,0,1,1-12.008,5.025,7.1,7.1,0,0,1,.934-3.56,6.864,6.864,0,0,1,6-3.491Zm.059,1.289a5.517,5.517,0,0,0-2.8.767,5.6,5.6,0,0,0-2.075,2.075,5.829,5.829,0,0,0-.747,2.911,5.624,5.624,0,0,0,5.625,5.655,5.7,5.7,0,0,0,2.872-.758,5.45,5.45,0,0,0,2.065-2.055,5.808,5.808,0,0,0,.738-2.9,5.649,5.649,0,0,0-.738-2.872,5.509,5.509,0,0,0-2.085-2.055A5.769,5.769,0,0,0,2215.192,2424.588Z" transform="translate(-2208.2 -2423.3)"/>
      </g>
      <g id="Group_129" data-name="Group 129" transform="translate(1524.746 1481.403)">
        <path id="Path_30" data-name="Path 30" d="M2452.1,2440.035V2426.7h.295l8.88,10.228V2426.7h1.318v13.335h-.3l-8.8-10.1v10.1Z" transform="translate(-2452.1 -2426.7)"/>
      </g>
      <g id="Group_130" data-name="Group 130" transform="translate(1437.972 1378.3)">
        <path id="Path_31" data-name="Path 31" d="M2064.278,1378.3c-15.626,14.25,10.729,30.083,19.138,17.613-3.895,3.412-30.113,2.99-19.138-17.613" transform="translate(-2011.266 -1378.3)" fill="#070606"/>
        <path id="Path_32" data-name="Path 32" d="M2021.908,1411.7c.669,1.573.167,3.875,3.658,4.652l-.089,2.036c-3.481-.728-4.061-3.629-3.57-6.687" transform="translate(-1977.304 -1408.416)" fill="#070606"/>
        <path id="Path_33" data-name="Path 33" d="M1934.8,1392.5c.993,4.573,4.317,17.4,14.378,16.423l.757,1.052c-10.021,1.092-13.758-9.215-15.135-17.476" transform="translate(-1898.899 -1391.104)" fill="#070606"/>
        <path id="Path_34" data-name="Path 34" d="M2093.4,1462.764l1.819,2.2a11.2,11.2,0,0,0,6.914-7.867c-2.3,4.239-5.163,5.891-8.733,5.665" transform="translate(-2041.902 -1449.35)" fill="#070606"/>
        <path id="Path_35" data-name="Path 35" d="M2259.8,1621.9c2.055,2.242,17.082.148,10.729,6.52,1.77-4.14-4.278-2.439-10.729-6.52" transform="translate(-2191.938 -1597.943)" fill="#070606"/>
        <path id="Path_36" data-name="Path 36" d="M1816.7,1617.269l17.505-.61c16.531.226,7.484-11.634,13.729-16.659l.285,2.046c-2.872,3.766,2.685,14.722-6.412,16.079Z" transform="translate(-1792.414 -1578.197)" fill="#070606"/>
        <path id="Path_37" data-name="Path 37" d="M2018.18,1692.2c-20.75.344-10.7,23.386-30.28,41.265,19.029-9.716,15.745-38.964,30.28-41.265" transform="translate(-1946.778 -1661.33)" fill="#070606"/>
        <path id="Path_38" data-name="Path 38" d="M2143.955,1862.256l-1.1,2.872c14.811-1.279,9.136,6.687-.954,13.915,8.871-2.252,28.844-18.646,2.055-16.787" transform="translate(-2085.633 -1814.53)" fill="#070606"/>
        <path id="Path_39" data-name="Path 39" d="M1734.921,1891.073c-6.264,2.065-12.657,2.606-21.449-.974l-11.968,9.362c-5.743,5.763,4.917,8.044,7.032,11.5-2.587-2.881-8.182-6.638-5.36-8.762,3.639-3.914,7.858-5.783,11.791-8.664,6.914,2.576,15.863,1.111,19.954-2.459" transform="translate(-1687.032 -1839.768)" fill="#070606"/>
        <path id="Path_40" data-name="Path 40" d="M1637.353,1778.224c-14.781,4.425-3.324,17.879-1.475,18.439l16.758,17.328-23.671-20.4c-4.986-2.508-9.392-17.426,8.389-15.371" transform="translate(-1619.164 -1738.719)" fill="#070606"/>
        <path id="Path_41" data-name="Path 41" d="M1571.748,1776.1c-6.274-6.264,4.15-8.222,4.77-5.212-1.77.787-5.606-.511-4.77,5.212" transform="translate(-1569.746 -1731.029)" fill="#070606"/>
      </g>
    </g>
  </g>
</svg>
